<svg xmlns="http://www.w3.org/2000/svg" viewBox="0 0 50.436 44"><path d="M1.15 0C-.008 0 0-.024 0 1.198v3.489c0 1.221-.009 1.212 1.15 1.212h7.053c1.405 5.376 5.977 30.808 6.174 31.906-.121.428-.183.87-.184 1.315a4.857 4.857 0 0 0 9.713 0c0-.238-.019-.476-.055-.712 5.164.001 7.42.003 12.14.003a4.85 4.85 0 0 0-.062.731 4.857 4.857 0 1 0 9.715 0 4.851 4.851 0 0 0-1.126-3.101c.004-.679.012-1.226 0-2.174-.015-1.416-.038-1.43-1.111-1.43H19.055l-.571-2.95h26.318c.98 0 .958.002 1.175-1.004 1.5-6.712 2.917-14.165 4.293-21.186.299-1.384.318-1.399-1.028-1.399H13.91l-.802-4.856C12.908.01 12.914 0 11.918 0z"/></svg>