<svg xmlns="http://www.w3.org/2000/svg" viewBox="0 0 11.64 7.41"><path d="M5.89 0a3.3 3.3 0 0 0-2.38 1.1c-.44.65-.94 1.31-1.04 2.12-.06.35.16.66.44.83a4.93 4.93 0 0 0 6.39-.23c.27-.53.03-1.15-.2-1.65A3.66 3.66 0 0 0 7.34.31a3.29 3.29 0 0 0-1.45-.3zm.01.8c1.1-.02 2.15.76 2.5 1.8a1 1 0 0 1-.32 1.1 3.3 3.3 0 0 1-2 .6c-.58 0-1.17-.12-1.75-.23-.35-.1-.77-.22-.98-.55-.22-.4 0-.85.22-1.2.39-.64.95-1.21 1.7-1.41.2-.06.42-.1.63-.1zm-.18.53a1.3 1.3 0 0 0-.94.43c-.27.3-.37.62-.37.62-.24.93.23 1.3.51.4 0 0 .1-.28.3-.52a.93.93 0 0 1 1.02-.28c.8.25.68-.32-.07-.6a1.5 1.5 0 0 0-.45-.05zm4.33 1.95l-.43.3.74.48-4.54 1.95-4.11-1.97.6-.35-.57-.37-1.7.82c-.05.03-.05.08 0 .1l5.69 3.15c.05.03.14.03.19 0l5.68-3.14c.06-.03.06-.08 0-.1z"/></svg>