<svg xmlns="http://www.w3.org/2000/svg" viewBox="0 0 50 50"><path d="M0 22.41l3.16 1.78c20.97-4.7 17.29 6.18.02 1.99L.05 28.01l2.07 2.76c7.24.43 4.44 1.1-.59 3.73l-.94 3.2 3.64.83c5.03-2.33 6.69-4.88 3.97 1.35l1.73 2.94 3.33-1.53c5.64-17.79 14.38-9.79 1.96.97l.23 3.31 3.75-.2c4-5.17 3.3-3.02 3.36 2.3L25.24 50l2.63-2.37c.03-5.69-.99-7.06 3.31-2.36l3.75.14.17-3.32c-14.47-13.02-2.46-15.95 1.94-1l3.36 1.47 1.68-2.97c-3.42-6.08-.63-3.7 3.94-1.41l3.62-.9-1-3.19c-5.31-2.82-7.68-2.73-.66-3.71l2.02-2.8-3.17-1.77c-20.97 4.69-17.28-6.18-.02-1.99l3.13-1.83-2.07-2.77c-7.24-.42-4.43-1.1.6-3.72l.93-3.21-3.63-.83c-5.04 2.34-6.7 4.89-3.98-1.34l-1.73-2.94-3.33 1.53c-5.64 17.78-14.38 9.78-1.96-.98l-.23-3.3-3.74.2c-4 5.17-3.31 3.02-3.36-2.31L24.75 0l-2.63 2.36c-.03 5.7.98 7.06-3.32 2.37l-3.75-.14-.16 3.3c14.47 13.04 2.46 15.97-1.94 1.02L9.59 7.43 7.91 10.4c3.42 6.08.63 3.7-3.94 1.42l-3.62.89 1 3.19c5.31 2.82 7.68 2.73.66 3.71z"/></svg>