<svg xmlns="http://www.w3.org/2000/svg" viewBox="0 0 56 45"><path d="M28 0C12.53 0 0 12.95 0 28.93c0 4.87 1.17 9.47 3.23 13.5A4.65 4.65 0 0 0 7.36 45h41.28c1.73 0 3.32-.99 4.13-2.57A29.57 29.57 0 0 0 56 28.93C56 12.95 43.46 0 28 0zm-.37 2.46a1.28 1.33 0 0 1 1.3 1.34v5.5a1.28 1.33 0 1 1-2.56 0V3.8a1.28 1.33 0 0 1 1.26-1.34zm14.54 5.38a1.28 1.33 0 0 1 .01 0 1.28 1.33 0 0 1 .9 2.24l-3.59 4.05a1.29 1.33 0 1 1-1.9-1.78l3.6-4.06a1.28 1.33 0 0 1 .86-.44 1.28 1.33 0 0 1 .13 0zm-29.09 0a1.28 1.33 0 0 1 1.03.45l3.6 4.06a1.29 1.33 0 1 1-1.9 1.78l-3.6-4.05a1.28 1.33 0 0 1 .87-2.23zm-8.2 12.34a1.28 1.33 0 0 1 .5.08l5.02 1.84a1.28 1.33 0 1 1-.86 2.5l-5.02-1.84a1.28 1.33 0 0 1 .36-2.58zm45.5 0a1.28 1.33 0 0 1 .4 2.58l-5.02 1.84a1.28 1.33 0 1 1-.86-2.5l5-1.84a1.28 1.33 0 0 1 .48-.08zm-18.24 6.78c7.2.06 21.45 2.5 21.38 3.66-.07 1.16-14.46 1.04-21.59-.18-7.12-1.22-6.98-3.54.21-3.48zM10.4 34.22a1.28 1.33 0 0 1 .28 2.63L5.44 37.9a1.28 1.33 0 1 1-.48-2.6l5.22-1.05a1.28 1.33 0 0 1 .22-.03zm34.46 0a1.28 1.33 0 0 1 .26.03l5.21 1.05a1.28 1.33 0 1 1-.48 2.6l-5.22-1.05a1.28 1.33 0 0 1 .23-2.63z"/></svg>