<svg xmlns="http://www.w3.org/2000/svg" viewBox="0 0 56 57"><path d="M55.22 8.89c-1-.8-2.2 1.08-3.02 1.8l-4.59 4.64-5.77-.97-.96-5.84 6.32-6.39c.4-1.84-1.4-2.2-3.26-2.12-1.11.04-2.26.24-2.98.35-3.38.87-7.29 3.2-7.42 7.15-.35 2.9.83 6.39-1.32 8.8-5.59 5.63-12 12.23-16.75 16.9C10.72 37.89 2.94 36.95.44 44.96c-2.3 7.33 4.98 13.93 11 11.55 7.91-3.14 7.03-10.93 11.53-15.67 4.49-4.74 11.75-11.5 16.9-16.75l.02.01c3.35-2.9 8.3.13 11.86-2.37 3.52-2.87 5-7.92 3.9-12.32-.14-.23-.28-.4-.43-.52zM13.66 42.98l1.28 5.29-4.07 4.17L5.42 51l-1.28-5.16 4.05-4.26z"/></svg>