<svg xmlns="http://www.w3.org/2000/svg" viewBox="0 0 24 24"><path d="m 12.000003,13.317539 7.246417,7.24641 c 0.860963,0.86098 2.432143,4.15484 3.293823,3.29387 l 1.31753,-1.31759 c 0.86097,-0.86094 -2.43285,-2.43216 -3.29382,-3.29382 l -7.246478,-7.24634 7.246478,-7.2464804 c 0.86097,-0.86097 4.15478,-2.432155 3.29382,-3.29383 l -1.31753,-1.31752897 c -0.86097,-0.860976 -2.43213,2.43287497 -3.293823,3.29382897 L 11.999946,10.682529 4.7535865,3.4360586 C 3.8926165,2.5750706 2.3214215,-0.71875737 1.4597575,0.14222963 L 0.14222846,1.4597586 c -0.860964,0.860965 2.43289004,2.43285 3.29382604,3.29383 l 7.2463705,7.2464704 -7.2463785,7.24635 c -0.860954,0.86098 -4.15477504,2.43288 -3.29382904,3.29386 l 1.31752804,1.31755 c 0.860966,0.86097 2.432164,-2.43285 3.293829,-3.29383 z" /></svg>